<svg width="134" height="114" viewBox="0 0 134 114" fill="none" xmlns="http://www.w3.org/2000/svg">
<g clip-path="url(#clip0_304_652)">
<path d="M68.6286 2.75687C68.6286 2.75687 65.4732 0.178726 61.1728 0.0255684C56.8724 -0.153115 48.526 8.44921 46.6176 12.4824V15.7497C46.6176 15.7497 49.5184 20.3189 49.7729 20.5997C50.0019 20.8805 50.5108 22.0036 52.5211 22.361C54.5313 22.7184 55.0148 22.897 55.0148 22.897C55.0148 22.897 56.3635 28.6915 57.0505 30.0189C57.7376 31.3717 59.7987 32.8778 60.3076 32.8778C60.842 32.8778 61.6563 32.8778 63.5139 31.6525C65.3714 30.4273 67.4071 30.0699 69.4683 30.0189C71.504 29.9678 73.6669 30.8357 74.7102 31.5504C74.7102 31.5504 78.6798 30.6825 79.0106 30.3252C79.3669 29.9678 82.0387 23.2544 82.0387 23.2544C82.0387 23.2544 85.3213 24.1989 86.2374 23.4841C87.1534 22.7949 88.1458 21.2634 88.324 19.6807C88.5021 18.0981 89.4945 9.8021 88.6039 7.35159C87.7387 4.90107 85.4485 3.24187 81.9624 2.7824C78.4763 2.27187 70.4861 1.45504 68.6286 2.75687Z" fill="#9E76B4"/>
<path d="M66.6438 4.74792C66.6438 4.74792 65.0661 5.20739 64.0737 6.91765C64.0737 6.91765 69.0357 4.69687 74.9647 5.05424C80.9191 5.4116 83.4637 6.04976 84.4562 6.40713C85.4486 6.76449 86.3137 7.81107 86.2119 10.9763C86.0847 14.1416 85.8048 20.2679 85.2195 20.8039C84.6343 21.34 78.0437 19.0426 77.3058 18.8639C76.5424 18.6852 69.1375 15.6476 57.3813 20.4465C57.3813 20.4465 53.0046 20.0381 52.4957 19.7573C52.0122 19.4765 49.6202 14.9073 48.9841 14.1926C48.9841 14.1926 51.6559 8.88317 55.3965 5.99871C59.1371 3.13977 60.4094 2.73135 61.1728 2.78241C61.9362 2.80793 66.0585 3.62477 66.6438 4.74792Z" fill="white"/>
<path d="M57.7885 20.8294C57.7885 20.8294 58.0684 26.5983 60.6384 29.9933C60.6384 29.9933 66.0585 26.777 69.0866 26.9557C72.1147 27.1344 75.7281 28.1809 76.2624 29.3041L80.003 20.2423C80.003 20.2423 74.0486 17.8939 69.2138 18.0215C64.7353 18.1236 59.5951 19.7828 57.7885 20.8294Z" fill="white"/>
<path d="M134 78.5442C134 58.9401 103.999 43.0883 67 43.0883C30.0011 43.0628 0 58.9401 0 78.5442C0 98.1483 30.0011 114.026 67 114.026C103.999 114 134 98.1228 134 78.5442Z" fill="#9E76B4"/>
<path d="M67 45.3346C31.6297 45.3346 2.95178 60.1908 2.95178 78.5442C2.95178 96.8975 31.6297 111.754 67 111.754C102.37 111.754 131.048 96.8975 131.048 78.5442C131.048 60.1908 102.37 45.3346 67 45.3346ZM67 110.299C33.1565 110.299 5.72542 96.0807 5.72542 78.5187C5.72542 60.9566 33.1565 46.7641 67 46.7641C100.844 46.7641 128.275 60.9822 128.275 78.5187C128.275 96.0807 100.844 110.299 67 110.299Z" fill="white"/>
<path d="M13.1048 42.0672C13.1048 42.0672 9.94947 41.4035 10.0004 38.3914C10.0513 35.3793 12.8503 34.7411 15.9039 35.0985C18.9574 35.4559 20.1534 35.2261 21.1967 35.0219C22.24 34.7922 25.7007 34.154 27.9145 35.3282C30.1538 36.5024 33.8181 39.004 33.9453 42.7053C34.0725 46.3811 33.3091 48.704 33.3091 48.704C33.3091 48.704 31.9096 51.7416 30.3319 52.5074C30.3319 52.5074 32.1386 62.5647 33.5636 62.5647C34.9886 62.5647 36.9988 51.614 36.9988 51.614C36.9988 51.614 40.1542 41.7608 40.4341 40.7143C40.714 39.6932 42.2917 33.0309 45.218 33.0564C48.1189 33.0819 49.3148 38.8509 50.1037 41.5056L51.0452 44.7729L52.9028 44.4156C52.9028 44.4156 52.4702 42.4245 52.0121 41.9906C51.5541 41.5566 49.7983 40.5866 49.7983 37.983C49.7983 35.3793 53.2081 34.8688 53.6661 34.8688C54.1242 34.8688 56.1344 35.3027 56.8215 35.3027C57.4831 35.3027 59.188 34.8688 59.9259 34.8688C60.6893 34.8688 61.071 35.0475 61.4018 35.0475C61.7581 35.0475 62.6741 34.7922 62.9286 34.8432C63.1576 34.8943 65.0661 35.2261 65.5496 35.2261C66.033 35.2261 67.5344 35.0475 68.4504 34.9964C69.3919 34.9454 69.9009 35.0475 70.4352 35.0475C70.9696 35.0475 71.4785 34.8688 71.6567 34.8688C71.8348 34.8688 73.2343 35.1496 73.6415 35.1496C74.0486 35.1496 75.9316 34.8177 76.4405 34.8177C76.924 34.8177 77.0767 35.0219 77.6365 34.9964C78.1963 34.9709 78.2218 34.8177 79.1888 34.7922C80.1557 34.7667 80.5883 35.1751 81.1227 35.1751C81.657 35.1751 83.1075 34.8432 83.9217 34.8432C84.736 34.8432 87.3061 35.7367 87.3061 38.1106C87.3061 40.4845 85.9575 41.1227 85.2195 41.863L83.3874 46.2279H85.5758C85.5758 46.2279 88.1458 38.6977 88.4257 37.6767C88.6802 36.6811 89.5963 33.0309 92.1918 33.0309C94.7619 33.0309 95.9578 37.6001 96.3904 38.9019C96.823 40.2293 99.8002 49.725 99.8002 49.725L104.075 50.9503L104.304 42.3224C104.304 42.3224 101.149 41.2248 101.123 38.2893C101.073 35.3538 104.533 34.9964 104.966 34.9964C105.398 34.9964 107.154 35.2261 107.714 35.2261C108.274 35.2261 111.429 34.4348 112.472 35.3027C113.516 36.1706 120.081 46.7385 120.081 46.7385V42.0416C120.081 42.0416 117.46 41.0716 117.46 38.4169C117.46 35.7367 120.03 34.8177 121.048 34.8688C122.066 34.9198 122.626 35.1751 124.152 35.1751C125.679 35.1751 126.519 34.8177 127.689 34.8688C128.86 34.9198 131.175 36.4003 131.099 38.519C131.023 40.6122 128.249 42.2969 128.249 42.2969L127.409 66.751C127.409 66.751 126.315 69.4312 123.821 68.3336L89.1128 68.5889H53.259C53.259 68.5889 13.4102 68.5634 12.6468 68.3336C11.8834 68.1039 10.3821 67.1594 10.3057 64.9386C10.2548 62.7179 13.0794 61.2629 13.0794 61.2629V42.0672H13.1048Z" fill="#9E76B4"/>
<path d="M31.8078 63.4581L26.744 51.2821C26.744 51.2821 28.9833 50.6695 30.2302 48.6529C31.5025 46.6364 31.2226 44.7474 31.2226 44.3135C31.2226 43.8795 31.0953 40.3569 27.9909 38.4425C24.8865 36.5025 20.9932 37.7277 20.6878 37.8298C20.3825 37.9064 18.6267 38.1361 17.6852 38.0851C16.7182 38.034 15.4204 38.0085 14.8352 37.7277C14.2754 37.4725 13.1303 37.498 13.0794 38.519C13.0285 39.5146 14.0972 39.6932 14.5553 39.8464C15.0388 39.974 15.7767 40.2293 15.7767 41.6077L15.8276 61.901C15.8276 61.901 15.7767 63.2539 14.6062 63.5602C13.4356 63.8666 13.0794 64.4026 13.0794 64.8876C13.0794 65.3726 13.0794 66.4702 15.5731 65.3726H20.586C20.586 65.3726 22.6726 66.0618 23.1307 65.0152C23.1307 65.0152 23.3088 63.7389 21.6802 63.6879C20.0517 63.6368 20.1026 61.6202 20.1026 61.6202V52.4053L22.5963 52.4563L27.482 65.8065C27.482 65.8065 28.8052 65.245 30.4592 65.3726C32.1132 65.5002 32.3422 65.781 33.131 65.8065C33.9453 65.8321 34.1234 63.841 31.8078 63.4581ZM20.2298 50.3887V39.9485C20.2298 39.9485 26.744 38.0596 26.744 45.1559C26.744 52.099 20.2298 50.3887 20.2298 50.3887Z" fill="white"/>
<path d="M22.9525 42.6798V47.3511C22.9525 47.3511 23.9704 47.3511 23.9704 45.0027C23.9704 42.6798 22.9525 42.6798 22.9525 42.6798Z" fill="white"/>
<path d="M54.9385 63.6368C54.5059 63.2029 54.1497 62.6668 54.0224 62.1818C53.8952 61.6968 45.676 36.8853 45.447 36.1961C45.218 35.5069 45.218 35.8388 45.218 35.8388C44.989 35.8898 43.0296 42.4245 43.0296 42.4245L38.9837 54.4474C38.9837 54.4474 36.5663 61.7734 35.981 63.0497C35.4212 64.3515 33.4873 63.7389 33.64 64.8876C33.7926 66.0363 34.7087 65.6278 35.4975 65.4747C36.2864 65.3471 38.5002 65.3981 39.7725 65.4747C41.0448 65.5513 41.2484 64.9386 41.2484 64.9386C41.2484 64.9386 41.6301 64.1984 40.2051 63.7644C38.7547 63.3305 39.2381 61.8244 39.2381 61.8244L41.1212 54.6005H46.8466L49.035 63.2794C47.5845 63.7644 46.9484 64.4536 47.0247 64.8621C47.101 65.245 47.2028 65.7299 48.1952 65.7044C49.1876 65.6789 50.3836 65.3471 51.6814 65.3471C53.0046 65.3471 53.7425 65.4747 54.5568 65.6534C55.3965 65.8321 56.1854 65.6534 56.1854 64.811C56.2362 63.9686 55.3711 64.0707 54.9385 63.6368ZM41.681 52.4563L43.7421 45.0793L46.1086 52.4563H41.681Z" fill="white"/>
<path d="M101.887 63.6368C101.454 63.2029 101.098 62.6668 100.971 62.1818C100.844 61.6968 92.6244 36.8853 92.3954 36.1961C92.1664 35.5069 92.1664 35.8388 92.1664 35.8388C91.9374 35.8898 89.978 42.4245 89.978 42.4245L85.932 54.4474C85.932 54.4474 83.5146 61.7734 82.9294 63.0497C82.3696 64.3515 80.4357 63.7389 80.5883 64.8876C80.741 66.0363 81.6571 65.6278 82.4459 65.4747C83.2347 65.3471 85.4486 65.3981 86.7209 65.4747C87.9932 65.5513 88.1968 64.9386 88.1968 64.9386C88.1968 64.9386 88.5785 64.1984 87.1535 63.7644C85.703 63.3305 86.1865 61.8244 86.1865 61.8244L88.0695 54.6005H93.7949L95.9833 63.2794C94.5329 63.7644 93.8967 64.4536 93.9731 64.8621C94.0494 65.245 94.1512 65.7299 95.1436 65.7044C96.136 65.6789 97.332 65.3471 98.6297 65.3471C99.9529 65.3471 100.691 65.4747 101.505 65.6534C102.345 65.8321 103.134 65.6534 103.134 64.811C103.21 63.9686 102.319 64.0707 101.887 63.6368ZM88.6548 52.4563L90.7159 45.0793L93.0824 52.4563H88.6548Z" fill="white"/>
<path d="M82.9294 37.8299C82.5731 37.9831 80.4356 37.8554 80.0285 37.7278C79.6213 37.6002 78.8834 37.4725 78.858 38.5446C78.8071 39.6167 79.9013 39.7444 79.9013 39.9486L78.3236 45.8707L74.1504 58.7103C74.1504 58.7103 72.5982 53.7838 71.1223 48.9849C72.4964 45.3346 73.9468 41.4036 74.1249 41.0462C74.4303 40.357 75.6517 39.6423 75.9825 39.4636C76.3133 39.2849 76.695 38.9786 76.6696 38.2383C76.6441 37.4981 75.3464 37.7023 74.9647 37.8554C74.583 38.0086 72.2674 37.881 71.8348 37.7533C71.4022 37.6257 70.6134 37.4981 70.5625 38.5702C70.5116 39.6423 71.7076 39.7699 71.7076 39.9741L70.079 45.5899C69.1884 42.6288 68.5013 40.2549 68.5013 39.8975C68.5013 39.8975 69.621 39.6167 69.6464 38.2128C69.6719 36.8089 67.8652 37.8554 67.6616 37.932C67.4835 37.9831 66.7201 38.1107 65.9313 38.0852C65.1424 38.0596 63.7938 37.6002 63.2594 37.6512C62.725 37.7023 62.0634 37.7278 62.0889 38.5957C62.1143 39.4381 63.2594 39.336 63.6665 40.1528C63.9719 40.7399 66.4402 48.168 67.7888 52.2267L65.4987 58.7614C65.4987 58.7614 59.4425 40.9441 59.417 39.9486C59.417 39.9486 60.613 39.6678 60.6384 38.2639C60.6639 36.8599 58.7045 37.9065 58.5009 37.9831C58.2974 38.0341 57.4831 38.1618 56.6434 38.1362C55.8036 38.1107 54.3532 37.6512 53.7679 37.7023C53.1827 37.7533 52.4956 37.7789 52.5211 38.6467C52.5465 39.4891 53.7679 39.387 54.2005 40.2038C54.6331 41.0207 59.5951 54.8814 59.5951 54.8814L64.0737 67.3892C64.0737 67.3892 64.4299 66.9808 65.1424 65.0408C65.8804 63.1008 68.7303 55.494 68.7303 55.494C68.7303 55.494 68.7558 55.4175 68.8067 55.3154L72.8272 67.3892C72.8272 67.3892 73.158 66.9808 73.8196 65.0408C74.5066 63.1008 77.1531 55.494 77.1531 55.494C77.1531 55.494 81.8606 41.8375 82.1405 41.1483C82.4204 40.4591 83.5655 39.7444 83.8709 39.5657C84.1762 39.387 84.5325 39.0807 84.507 38.3404C84.4816 37.4725 83.2602 37.6768 82.9294 37.8299Z" fill="white"/>
<path d="M107.027 40.6122L106.773 61.5182C106.773 61.5182 106.543 63.305 105.882 63.5347C105.22 63.7645 103.897 63.6113 103.897 64.8621C103.897 66.1129 105.882 65.6279 106.238 65.4492C106.594 65.2705 109.266 65.0918 109.673 65.4492C110.081 65.8066 110.869 65.7555 111.098 65.7555C111.327 65.7555 111.964 65.6024 111.964 64.7089C111.964 63.79 109.953 63.6624 109.521 63.0242C109.088 62.3861 108.961 61.0332 108.961 61.0332L108.808 43.2159L124.356 66.9552C124.356 66.9552 125.399 42.5267 125.577 41.4801C125.755 40.4335 126.519 39.8464 126.85 39.7954C127.206 39.7443 127.944 39.5146 128.249 38.9785C128.529 38.4425 128.02 37.6256 126.875 37.8554C125.73 38.0851 122.727 38.2638 121.862 37.8043C120.997 37.3449 120.183 38.1106 120.183 38.3914C120.183 38.6722 120.412 39.7188 121.913 39.7698C121.913 39.7698 122.727 40.0251 122.753 41.0206C122.778 42.0162 123.16 56.515 123.16 56.515L111.709 38.9785C111.709 38.9785 111.226 37.5235 109.546 37.932C107.892 38.3404 106.264 38.1362 105.729 37.9575C105.195 37.7788 103.846 37.6767 103.872 38.3659C103.897 39.0551 104.508 39.3614 105.322 39.6933C106.136 39.923 107.027 40.2293 107.027 40.6122Z" fill="white"/>
<path d="M51.3251 46.3045L51.7577 48.0658H53.5898L53.0554 46.1259C53.0809 46.1259 51.8594 46.1259 51.3251 46.3045Z" fill="white"/>
<path d="M82.9548 46.1514L82.4204 47.8106L84.4816 48.0658L84.9396 46.4577C84.965 46.4577 84.0999 46.1514 82.9548 46.1514Z" fill="white"/>
<path d="M99.3931 49.6229L100.029 51.7927C100.029 51.7927 103.515 52.6095 103.515 52.9669V51.2566C103.515 51.2566 102.879 50.3887 99.3931 49.6229Z" fill="white"/>
<path d="M111.226 54.2943V56.2343C111.226 56.2343 113.719 57.6382 114.381 58.2253L112.574 54.958L111.226 54.2943Z" fill="white"/>
<path d="M60.6385 19.2979C60.6385 19.2979 56.6688 16.5921 56.1854 16.5921C56.1854 16.5921 60.4349 17.9961 60.6385 18.3534C60.6385 18.3534 60.2822 16.4134 60.384 15.7498C60.384 15.7498 61.3001 18.2258 61.3001 19.1447L60.6385 19.2979Z" fill="#9E76B4"/>
<path d="M67.4835 17.8939C67.4835 17.8939 66.313 15.4945 66.3384 14.9073C66.3384 14.9073 67.7889 16.3113 68.6031 17.8939H67.4835Z" fill="#9E76B4"/>
<path d="M70.2062 17.7918C70.2062 17.7918 70.8678 15.5199 71.4786 15.3923C72.0893 15.2647 71.4786 15.571 71.4786 15.571C71.4786 15.571 70.8678 17.7663 70.9696 17.8939L70.2062 17.7918Z" fill="#9E76B4"/>
<path d="M76.2625 18.6342C76.2625 18.6342 77.4839 15.1371 77.9673 14.9073C77.9673 14.9073 77.2294 16.975 77.662 17.1537C77.662 17.1537 79.4178 14.9073 80.283 15.3413C80.283 15.3413 77.1022 18.5576 77.3057 18.8129L76.2625 18.6342Z" fill="#9E76B4"/>
<path d="M39.8234 70.7077C39.8234 70.7077 31.9605 70.529 25.2682 75.3789C19.5427 79.5142 16.7691 82.6284 16.7691 86.3552C16.7691 90.1076 21.7311 92.0731 27.4311 92.022C33.1311 91.971 37.2788 90.6691 38.5002 90.3884C39.7216 90.1076 44.2765 88.4484 44.6073 88.1165C44.9636 87.7592 45.2435 86.9934 44.6073 86.0234C43.9712 85.0278 40.5359 86.6615 40.0524 86.8913C39.5944 87.121 33.9962 88.9844 30.0775 89.2397C26.4641 89.4439 21.4003 89.597 21.4003 86.3297C21.4003 83.0623 26.3623 78.2124 29.4922 76.6808C32.6476 75.1492 37.2279 73.8729 40.1542 73.5921C42.9024 73.3368 44.4037 74.7663 45.6252 74.5876C46.8466 74.409 47.0756 73.8218 47.1265 73.2347C47.2283 72.6476 45.5488 70.4269 39.8234 70.7077Z" fill="white"/>
<path d="M64.888 83.0367C64.888 83.0367 66.8728 82.7815 66.8728 81.352C66.8728 79.9226 62.6233 80.331 62.6233 80.331C62.6233 80.331 55.7528 80.867 53.4117 82.3731C51.0707 83.9046 49.8492 85.4107 49.8492 86.9423C49.8492 88.1675 50.9689 89.6991 51.9358 90.4393C52.9282 91.2051 55.193 92.022 58.0429 92.022C60.8929 92.022 64.5572 90.8988 64.5572 90.8988C64.5572 90.8988 65.3715 91.9454 67.3054 92.022C69.2393 92.073 69.9263 89.4438 69.9263 88.3972C69.9263 87.3507 71.1987 83.5983 72.1402 82.4241C73.0817 81.2499 71.504 80.1012 70.5116 80.2544C69.5192 80.4331 67.9415 80.3565 66.7201 83.3941C65.4987 86.4317 65.1933 87.8357 65.1933 87.8357C65.1933 87.8357 63.1067 89.4183 59.417 89.4183C55.7528 89.4183 54.3532 88.4228 54.3532 87.0188C54.4041 85.6659 55.6255 83.0367 64.888 83.0367Z" fill="white"/>
<path d="M84.8124 74.2047C84.8124 74.2047 85.5757 72.1626 83.4128 71.6266C81.2499 71.0905 80.6646 73.3113 80.2575 74.4345C79.8503 75.5321 76.1861 87.8868 76.1861 87.8868C76.1861 87.8868 74.5575 91.5115 77.0004 92.0475C79.4432 92.5836 81.1481 87.1465 81.5552 84.747L91.861 91.6902C91.861 91.6902 93.6168 92.9154 95.0163 91.6902C96.4158 90.4649 93.3369 88.6525 92.9297 88.3462C92.5226 88.0654 85.5249 83.4452 85.5249 83.4452C85.5249 83.4452 92.6244 81.2755 93.3368 81.0968C94.0239 80.9181 94.2529 80.0502 94.1511 79.3355C93.973 78.2123 92.0645 78.7484 91.123 78.9781C90.1815 79.2078 82.624 81.3776 82.624 81.3776L84.8124 74.2047Z" fill="white"/>
<path d="M105.449 86.3041C105.449 86.3041 103.999 86.253 104.101 87.2485C104.228 88.2441 105.5 88.193 106.442 88.0143C107.383 87.8356 115.297 85.8446 116.417 85.3341C117.536 84.798 119.572 84.0578 119.623 82.6538C119.674 81.2499 114.61 80.2544 111.862 80.382C109.139 80.5096 105.169 80.5096 102.421 82.4751C99.673 84.4662 98.7569 87.7335 99.444 89.1375C100.131 90.5414 101.48 91.639 106.773 91.8177C112.065 91.9964 116.849 90.7201 117.714 90.4138C118.58 90.133 119.877 89.1885 119.877 88.3717C119.877 87.5549 118.249 87.5549 117.613 87.7335C116.976 87.9122 114.763 88.5504 113.465 88.9077C112.193 89.2651 109.215 89.4948 107.918 89.4948C106.645 89.4948 103.134 88.9843 102.828 87.8101C102.65 87.1209 102.65 86.5083 103.948 85.232C104.813 84.3641 107.052 82.9857 108.605 82.7814C112.752 82.2199 115.602 82.5517 114.661 83.5472C113.77 84.4917 105.449 86.3041 105.449 86.3041Z" fill="white"/>
<path d="M100.08 94.1407C100.08 94.1407 100.894 92.7368 101.709 94.1407C102.523 95.5446 101.302 97.357 100.08 98.4036C98.8587 99.4502 93.3114 103.56 88.9601 103.713C84.5834 103.892 78.4762 103.534 73.9977 102.845C69.5192 102.156 67 101.62 62.3433 101.263C57.6867 100.905 51.0452 101.211 49.2894 102.615C47.5336 104.019 46.9483 104.785 46.0832 104.479C45.218 104.198 44.0984 102.947 44.4037 101.85C44.6836 100.726 46.6684 98.5057 49.8747 98.2759C49.8747 98.2759 48.068 97.2294 43.1823 97.4591C38.2966 97.6888 36.9988 99.0673 35.6756 99.0162C34.327 98.9652 33.5891 97.6378 33.5891 96.5657C33.5891 95.5191 34.6323 93.7578 39.1363 93.9365C43.6149 94.1152 50.7907 95.4681 52.5974 95.8765C54.4041 96.2849 67.5598 99.9096 72.2419 101.007C76.8986 102.13 83.591 101.824 86.39 101.365C89.1891 100.905 92.8534 99.6033 94.5583 98.4546C96.1869 97.306 99.7493 94.5491 100.08 94.1407Z" fill="white"/>
</g>
<defs>
<clipPath id="clip0_304_652">
<rect width="134" height="114" fill="white"/>
</clipPath>
</defs>
</svg>
